<svg width="25" height="17" viewBox="0 0 25 17" fill="none" xmlns="http://www.w3.org/2000/svg">
<path d="M10.6239 16.6362C13.1717 17.2934 12.771 14.8221 12.254 13.5339C4.76637 11.7671 1.94801 9.25725 1.47477 8.22314C1.15928 8.32831 0.0263672 9.32735 0.0263672 9.90575C0.236693 13.5865 7.45638 15.819 10.6239 16.6362Z" fill="url(#paint0_linear_974_80)"/>
<path d="M13.8973 0.182187C11.3495 -0.475081 11.7502 1.99625 12.2673 3.28449C19.7549 5.05123 22.5732 7.56111 23.0465 8.59521C23.362 8.49005 24.4949 7.491 24.4949 6.91261C24.2845 3.23191 17.0649 0.999342 13.8973 0.182187Z" fill="url(#paint1_linear_974_80)"/>
<path d="M16.0644 14.3998C15.8541 16.9238 12.7685 17.0128 11.2524 16.7411C12.935 16.5834 12.6466 14.8731 12.3048 13.7163C11.963 12.5595 10.8063 9.61493 8.78187 4.3305C6.75749 -0.953933 13.3031 0.0465415 13.6449 0.125414C11.1998 0.0465422 12.0682 2.43757 12.2785 3.38402C12.4889 4.33048 14.5658 9.48348 15.1968 11.0872C15.8278 12.6909 16.0644 13.5848 16.0644 14.3998Z" fill="url(#paint2_linear_974_80)"/>
<path d="M4.26535 3.43799C6.76822 4.19516 8.42805 5.48866 8.9451 6.04077C1.43647 7.47098 0.0525814 9.27453 0.0325442 10.037C-0.151491 8.45951 0.479486 6.46142 1.05788 5.3835C1.63628 4.30558 3.73953 3.43799 4.26535 3.43799Z" fill="#D09DE8"/>
<path d="M4.26535 3.43799C6.76822 4.19516 8.42805 5.48866 8.9451 6.04077C1.43647 7.47098 0.0525814 9.27453 0.0325442 10.037C-0.151491 8.45951 0.479486 6.46142 1.05788 5.3835C1.63628 4.30558 3.73953 3.43799 4.26535 3.43799Z" fill="url(#paint3_linear_974_80)"/>
<path d="M20.2438 13.2969C17.7409 12.5397 16.0811 11.2462 15.5641 10.6941C23.0727 9.26388 24.4566 7.46034 24.4766 6.69791C24.6606 8.27535 24.0297 10.2734 23.4513 11.3514C22.8729 12.4293 20.7696 13.2969 20.2438 13.2969Z" fill="url(#paint4_linear_974_80)"/>
<defs>
<linearGradient id="paint0_linear_974_80" x1="1.47236" y1="9.46485" x2="11.8309" y2="15.4591" gradientUnits="userSpaceOnUse">
<stop stop-color="#A573CC"/>
<stop offset="1" stop-color="#C8A6FF"/>
</linearGradient>
<linearGradient id="paint1_linear_974_80" x1="23.6091" y1="7.5193" x2="13.0928" y2="1.89309" gradientUnits="userSpaceOnUse">
<stop stop-color="#C7A5FE"/>
<stop offset="1" stop-color="#A574CC"/>
</linearGradient>
<linearGradient id="paint2_linear_974_80" x1="17.3782" y1="13.382" x2="2.87057" y2="3.67859" gradientUnits="userSpaceOnUse">
<stop offset="0.024783" stop-color="#AC6CFF"/>
<stop offset="1" stop-color="#7939CC"/>
</linearGradient>
<linearGradient id="paint3_linear_974_80" x1="0.742392" y1="5.77182" x2="7.57798" y2="6.9549" gradientUnits="userSpaceOnUse">
<stop stop-color="#AC6CFF"/>
<stop offset="1" stop-color="#7939CC"/>
</linearGradient>
<linearGradient id="paint4_linear_974_80" x1="23.7668" y1="10.963" x2="16.9312" y2="9.77996" gradientUnits="userSpaceOnUse">
<stop stop-color="#AC6CFF"/>
<stop offset="1" stop-color="#7939CC"/>
</linearGradient>
</defs>
</svg>
