<svg width="360" height="360" viewBox="0 0 360 360" fill="none" xmlns="http://www.w3.org/2000/svg">
<g clip-path="url(#clip0_1020_153)">
<path d="M29.5995 133.257V130.725C29.5996 130.048 29.3275 129.4 28.8428 128.921C28.3582 128.443 27.7007 128.173 27.0147 128.172H22.0602V125.826C22.0517 123.084 22.6807 121.442 23.2467 120.844L23.2733 120.811C23.659 120.436 24.1437 120.176 24.6721 120.059C26.5007 119.768 28.3504 119.627 30.2025 119.636H31.1541C31.494 119.636 31.8307 119.57 32.1447 119.441C32.4588 119.313 32.7442 119.125 32.9845 118.888C33.2248 118.651 33.4154 118.37 33.5454 118.06C33.6754 117.75 33.7422 117.418 33.742 117.083V114.797C33.7431 114.205 33.5347 113.63 33.1526 113.173C32.7705 112.716 32.2387 112.404 31.6487 112.292C31.2991 112.225 30.9484 112.165 30.5965 112.112C30.1077 112.038 27.5425 112 27.0394 112H29.1023H27.0044C22.8352 112 19.2852 112.96 16.9082 115.474L16.9043 115.478C14.5812 118.001 13.7458 121.568 13.7341 125.905V173.69C13.7341 174.025 13.8011 174.357 13.9313 174.667C14.0614 174.976 14.2521 175.258 14.4926 175.495C14.733 175.731 15.0185 175.919 15.3326 176.048C15.6468 176.176 15.9834 176.242 16.3234 176.241H19.4715C19.8115 176.242 20.1482 176.176 20.4623 176.048C20.7765 175.92 21.0619 175.732 21.3023 175.495C21.5427 175.258 21.7334 174.976 21.8634 174.667C21.9935 174.357 22.0603 174.025 22.0602 173.69V135.806H27.0147C27.3547 135.806 27.6913 135.74 28.0053 135.612C28.3194 135.484 28.6047 135.296 28.8451 135.059C29.0854 134.822 29.2761 134.54 29.4061 134.231C29.5361 133.921 29.6029 133.589 29.6027 133.254M238.499 139.789C239.167 141.651 239.49 143.616 239.453 145.59V173.684C239.452 174.019 239.519 174.351 239.649 174.661C239.779 174.97 239.97 175.252 240.211 175.489C240.451 175.726 240.737 175.914 241.051 176.042C241.365 176.171 241.702 176.236 242.042 176.236H245.109C245.449 176.236 245.786 176.17 246.1 176.042C246.414 175.914 246.699 175.726 246.939 175.489C247.18 175.251 247.37 174.97 247.5 174.66C247.63 174.351 247.697 174.019 247.697 173.684V144.854C247.774 141.755 247.208 138.673 246.035 135.797C244.946 133.221 243.078 131.037 240.687 129.543C238.127 128.035 235.185 127.276 232.205 127.355H232.154C228.977 127.328 225.861 128.203 223.175 129.875C221.407 130.998 219.864 132.433 218.626 134.109C217.55 132.267 216.043 130.704 214.232 129.552C211.714 128.042 208.809 127.28 205.863 127.355H205.806C202.658 127.336 199.57 128.211 196.913 129.875C196.116 130.385 195.367 130.963 194.674 131.603V130.721C194.675 130.386 194.608 130.054 194.478 129.745C194.348 129.435 194.158 129.154 193.917 128.917C193.677 128.68 193.392 128.492 193.078 128.363C192.764 128.235 192.428 128.169 192.088 128.169H189.022C188.682 128.168 188.345 128.234 188.03 128.362C187.715 128.49 187.429 128.678 187.189 128.915C186.948 129.152 186.757 129.433 186.627 129.743C186.497 130.054 186.43 130.386 186.43 130.721V173.687C186.43 174.022 186.497 174.354 186.627 174.664C186.757 174.974 186.948 175.255 187.188 175.492C187.429 175.729 187.714 175.917 188.028 176.045C188.343 176.174 188.679 176.24 189.019 176.239H192.085C192.425 176.24 192.762 176.174 193.076 176.046C193.39 175.917 193.676 175.729 193.916 175.492C194.157 175.255 194.347 174.974 194.477 174.664C194.607 174.354 194.674 174.022 194.674 173.687V147.631C194.688 146.134 194.94 144.649 195.42 143.229C195.908 141.733 196.645 140.328 197.599 139.069C198.479 137.887 199.596 136.896 200.882 136.158C202.142 135.464 203.569 135.117 205.012 135.155C207.117 135.16 208.503 135.618 209.47 136.324C210.637 137.21 211.514 138.416 211.99 139.79C212.658 141.651 212.981 143.616 212.943 145.59V173.684C212.943 174.019 213.01 174.351 213.14 174.661C213.27 174.97 213.461 175.252 213.701 175.489C213.942 175.726 214.227 175.914 214.542 176.042C214.856 176.171 215.193 176.236 215.533 176.236H218.598C218.938 176.236 219.275 176.171 219.589 176.042C219.903 175.914 220.189 175.726 220.429 175.489C220.67 175.252 220.86 174.97 220.99 174.661C221.12 174.351 221.187 174.019 221.186 173.684V147.631C221.199 146.134 221.45 144.649 221.931 143.23C222.42 141.734 223.156 140.328 224.111 139.07C224.989 137.889 226.105 136.899 227.388 136.161C228.649 135.467 230.076 135.12 231.519 135.157C233.626 135.163 235.012 135.62 235.975 136.327C237.144 137.211 238.021 138.417 238.497 139.792M148.164 173.97C151.642 176.033 155.645 177.075 159.703 176.974H159.753C163.734 177.061 167.662 176.056 171.099 174.071C174.448 172.019 177.074 168.999 178.62 165.423C180.33 161.68 181.125 157.258 181.126 152.206C181.23 147.755 180.394 143.331 178.672 139.215C177.155 135.621 174.58 132.556 171.281 130.417C167.822 128.315 163.818 127.252 159.757 127.355H159.705C155.703 127.273 151.758 128.293 148.313 130.303C144.964 132.355 142.339 135.377 140.796 138.955C139.113 142.684 138.338 147.135 138.336 152.287C138.238 156.701 139.057 161.089 140.743 165.181C142.237 168.796 144.83 171.866 148.164 173.97ZM150.161 139.252C151.204 137.93 152.56 136.881 154.111 136.197C155.891 135.472 157.804 135.117 159.73 135.154C161.611 135.119 163.478 135.48 165.206 136.214C166.764 136.933 168.122 138.012 169.166 139.36C171.43 142.217 172.717 146.406 172.72 152.204V152.212C172.72 158.189 171.437 162.432 169.252 165.17C168.223 166.488 166.879 167.534 165.34 168.215C163.564 168.94 161.655 169.294 159.734 169.256C155.405 169.207 152.579 167.885 150.25 165.041C147.961 162.177 146.667 158.024 146.664 152.287V152.274C146.664 146.248 147.962 141.984 150.164 139.252M102.587 173.687V147.632C102.602 146.153 102.874 144.686 103.393 143.297C103.936 141.793 104.741 140.394 105.772 139.163C106.785 137.94 108.045 136.939 109.472 136.222C110.982 135.485 112.651 135.119 114.335 135.157C116.813 135.157 118.567 135.653 119.758 136.419C121.057 137.25 122.062 138.459 122.631 139.878C123.36 141.696 123.715 143.639 123.675 145.593V173.687C123.675 174.023 123.742 174.355 123.872 174.664C124.002 174.974 124.193 175.255 124.433 175.492C124.674 175.729 124.959 175.917 125.273 176.045C125.588 176.173 125.924 176.239 126.264 176.239H129.412C129.752 176.239 130.089 176.174 130.403 176.045C130.717 175.917 131.003 175.729 131.243 175.492C131.484 175.255 131.674 174.974 131.804 174.664C131.934 174.355 132.001 174.023 132 173.687V144.855C132.085 141.691 131.426 138.551 130.076 135.68C128.806 133.089 126.775 130.934 124.247 129.495C121.467 128.002 118.336 127.263 115.172 127.353H115.132C111.778 127.321 108.478 128.194 105.59 129.877C104.514 130.509 103.507 131.25 102.587 132.088V114.88C102.587 114.545 102.52 114.213 102.39 113.903C102.26 113.593 102.07 113.312 101.829 113.075C101.589 112.838 101.304 112.65 100.99 112.521C100.676 112.393 100.339 112.327 99.9991 112.327H96.934C96.5939 112.327 96.257 112.392 95.9427 112.521C95.6284 112.649 95.3429 112.837 95.1024 113.074C94.8619 113.311 94.6711 113.593 94.5411 113.902C94.4111 114.212 94.3444 114.544 94.3447 114.88V173.69C94.3446 174.025 94.4114 174.357 94.5415 174.667C94.6716 174.977 94.8623 175.258 95.1028 175.495C95.3433 175.732 95.6288 175.92 95.943 176.048C96.2573 176.176 96.594 176.242 96.934 176.241H99.9991C100.339 176.242 100.676 176.176 100.99 176.048C101.304 175.919 101.589 175.731 101.829 175.494C102.07 175.257 102.26 174.976 102.39 174.667C102.52 174.357 102.587 174.025 102.587 173.69M86.3225 176.565H86.329C86.8262 176.565 87.3113 176.55 87.7843 176.519C88.4062 176.487 89.0194 176.36 89.6018 176.142C90.0846 175.954 90.4988 175.626 90.7905 175.203C91.0822 174.779 91.2379 174.279 91.2375 173.767V171.482C91.2377 171.147 91.1708 170.815 91.0409 170.505C90.9109 170.196 90.7203 169.914 90.48 169.677C90.2396 169.44 89.9543 169.252 89.6402 169.124C89.3261 168.995 88.9895 168.929 88.6495 168.929H87.4338C86.2467 168.956 85.0621 168.812 83.9169 168.503C83.3876 168.389 82.9013 168.131 82.5129 167.758L82.4831 167.724C81.9164 167.124 81.2868 165.484 81.2965 162.741V135.808H86.662C87.3479 135.808 88.0057 135.539 88.4908 135.061C88.976 134.583 89.2488 133.935 89.2493 133.259V130.725C89.2495 130.389 89.1827 130.057 89.0527 129.748C88.9227 129.438 88.7321 129.157 88.4918 128.92C88.2514 128.683 87.9661 128.494 87.652 128.366C87.3379 128.238 87.0013 128.172 86.6613 128.172H81.2959V120.76C81.296 120.425 81.2292 120.093 81.0992 119.783C80.9692 119.474 80.7786 119.192 80.5383 118.955C80.298 118.718 80.0126 118.53 79.6986 118.402C79.3845 118.273 79.0479 118.207 78.7079 118.207H75.5597C75.2196 118.207 74.8828 118.273 74.5685 118.401C74.2542 118.529 73.9686 118.717 73.7281 118.954C73.4876 119.191 73.2969 119.473 73.1669 119.783C73.0369 120.093 72.9701 120.425 72.9705 120.76V162.661C72.9789 166.948 73.8266 170.502 76.1258 173.033C78.5086 175.592 82.0975 176.562 86.3167 176.561" fill="#27272A"/>
<path d="M350.522 184.053C350.283 183.721 349.967 183.45 349.6 183.263C349.233 183.076 348.825 182.978 348.412 182.978H345.265C344.727 182.978 344.203 183.143 343.765 183.449C343.326 183.756 342.996 184.19 342.819 184.69L323.183 240.231C323.047 240.615 323.007 241.026 323.065 241.43C323.123 241.833 323.279 242.217 323.518 242.549C323.757 242.881 324.074 243.151 324.441 243.338C324.808 243.525 325.215 243.622 325.629 243.622H328.777C329.314 243.623 329.838 243.458 330.276 243.151C330.714 242.845 331.044 242.411 331.221 241.911L350.855 186.37C350.991 185.986 351.031 185.575 350.973 185.172C350.915 184.768 350.761 184.385 350.522 184.052" fill="#9580FF"/>
<path d="M231.019 185.591H227.954C227.614 185.591 227.277 185.657 226.963 185.786C226.65 185.914 226.364 186.102 226.124 186.339C225.884 186.576 225.693 186.857 225.564 187.167C225.434 187.477 225.367 187.808 225.367 188.144V192.986C225.367 193.321 225.434 193.653 225.564 193.963C225.694 194.272 225.885 194.554 226.126 194.791C226.366 195.027 226.651 195.215 226.966 195.344C227.28 195.472 227.616 195.538 227.956 195.537H231.022C231.362 195.538 231.699 195.472 232.013 195.344C232.327 195.215 232.612 195.027 232.852 194.79C233.093 194.554 233.283 194.272 233.413 193.963C233.543 193.653 233.61 193.321 233.61 192.986V188.144C233.61 187.808 233.544 187.476 233.414 187.167C233.284 186.857 233.093 186.575 232.853 186.338C232.612 186.101 232.327 185.913 232.013 185.785C231.699 185.657 231.362 185.591 231.022 185.591M231.019 203.204H227.954C227.614 203.204 227.277 203.27 226.963 203.398C226.649 203.527 226.364 203.715 226.124 203.952C225.884 204.189 225.693 204.47 225.563 204.78C225.433 205.09 225.367 205.421 225.367 205.757V241.069C225.367 241.404 225.434 241.736 225.564 242.046C225.694 242.355 225.885 242.637 226.126 242.874C226.366 243.11 226.651 243.298 226.966 243.426C227.28 243.555 227.616 243.621 227.956 243.62H231.022C231.362 243.621 231.699 243.555 232.013 243.427C232.327 243.299 232.612 243.111 232.853 242.874C233.093 242.637 233.284 242.355 233.414 242.046C233.544 241.736 233.611 241.404 233.611 241.069V205.757C233.611 205.421 233.544 205.089 233.414 204.78C233.284 204.47 233.094 204.188 232.853 203.951C232.613 203.714 232.328 203.526 232.014 203.398C231.699 203.27 231.363 203.204 231.023 203.204M219.671 236.313H218.455C217.267 236.339 216.082 236.196 214.937 235.887C214.408 235.773 213.922 235.515 213.533 235.143L213.504 235.107C212.937 234.508 212.308 232.864 212.316 230.121V203.192H217.682C218.022 203.192 218.358 203.127 218.672 202.998C218.986 202.87 219.272 202.682 219.512 202.445C219.752 202.208 219.943 201.927 220.073 201.617C220.203 201.308 220.27 200.976 220.27 200.641V198.108C220.27 197.773 220.203 197.441 220.073 197.131C219.943 196.821 219.753 196.54 219.513 196.303C219.272 196.066 218.987 195.878 218.673 195.749C218.358 195.621 218.022 195.555 217.682 195.555H212.316V188.144C212.316 187.808 212.25 187.476 212.12 187.167C211.99 186.857 211.799 186.576 211.559 186.339C211.318 186.102 211.033 185.913 210.719 185.785C210.405 185.657 210.068 185.591 209.728 185.591H206.58C206.24 185.591 205.903 185.657 205.589 185.785C205.275 185.913 204.989 186.101 204.749 186.338C204.508 186.575 204.318 186.857 204.188 187.166C204.058 187.476 203.991 187.808 203.991 188.144V230.045C203.999 234.332 204.847 237.886 207.146 240.416L207.15 240.419C209.534 242.979 213.122 243.951 217.349 243.949H217.39C217.873 243.949 218.343 243.932 218.801 243.903C219.423 243.87 220.036 243.742 220.618 243.524C221.102 243.336 221.516 243.009 221.809 242.586C222.102 242.163 222.258 241.663 222.259 241.151V238.864C222.259 238.528 222.192 238.196 222.062 237.887C221.932 237.577 221.742 237.295 221.501 237.058C221.261 236.821 220.976 236.633 220.661 236.505C220.347 236.377 220.011 236.311 219.671 236.311M198.753 195.555H195.521C195.002 195.555 194.496 195.708 194.067 195.994C193.638 196.281 193.306 196.688 193.115 197.163L179.946 229.789L166.436 197.143C166.242 196.673 165.91 196.271 165.483 195.988C165.056 195.705 164.553 195.555 164.039 195.555H160.643C160.217 195.555 159.798 195.658 159.423 195.856C159.047 196.053 158.727 196.339 158.49 196.688C158.253 197.037 158.108 197.438 158.066 197.856C158.024 198.273 158.087 198.695 158.25 199.083L175.493 240.182L173.817 244.281C172.73 246.958 171.788 249.037 171.026 250.457C170.532 251.472 169.89 252.409 169.12 253.239C168.76 253.606 168.297 253.859 167.79 253.964C166.778 254.139 165.75 254.218 164.722 254.2H163.294C162.954 254.2 162.617 254.266 162.303 254.394C161.989 254.523 161.703 254.711 161.463 254.948C161.222 255.185 161.032 255.466 160.902 255.776C160.772 256.086 160.705 256.418 160.705 256.753V259.204C160.705 259.795 160.914 260.367 161.294 260.824C161.675 261.28 162.204 261.593 162.792 261.708C163.142 261.775 163.533 261.836 163.985 261.9C164.498 261.968 165.015 262.002 165.532 262.004C167.238 262.034 168.942 261.857 170.604 261.476C172.233 261.066 173.718 260.228 174.901 259.051C176.156 257.739 177.206 256.251 178.017 254.636C178.956 252.863 179.977 250.637 181.103 247.921L201.154 199.065C201.314 198.678 201.374 198.257 201.33 197.842C201.286 197.426 201.139 197.027 200.901 196.68C200.664 196.333 200.344 196.049 199.969 195.853C199.595 195.657 199.177 195.555 198.753 195.555ZM152.358 179.71H149.293C148.953 179.71 148.616 179.776 148.302 179.904C147.988 180.032 147.702 180.22 147.462 180.457C147.221 180.694 147.031 180.976 146.9 181.285C146.77 181.595 146.704 181.927 146.704 182.263V241.073C146.704 241.408 146.77 241.74 146.901 242.05C147.031 242.359 147.221 242.641 147.462 242.878C147.702 243.115 147.988 243.303 148.302 243.431C148.616 243.559 148.953 243.625 149.293 243.624H152.358C153.044 243.624 153.703 243.355 154.188 242.877C154.673 242.398 154.946 241.749 154.946 241.073V182.263C154.946 181.927 154.879 181.595 154.749 181.286C154.619 180.976 154.429 180.695 154.188 180.458C153.948 180.221 153.663 180.032 153.349 179.904C153.035 179.776 152.698 179.71 152.358 179.71ZM77.714 202.538C80.191 202.538 81.9435 203.034 83.134 203.799C84.4356 204.628 85.4424 205.837 86.0141 207.257C86.7432 209.074 87.0978 211.017 87.0572 212.972V241.065C87.0572 241.4 87.1242 241.732 87.2543 242.042C87.3844 242.351 87.5752 242.633 87.8156 242.87C88.0561 243.107 88.3415 243.295 88.6557 243.423C88.9698 243.551 89.3065 243.617 89.6464 243.617H92.7946C93.1346 243.617 93.4713 243.551 93.7855 243.423C94.0998 243.295 94.3853 243.107 94.6258 242.87C94.8662 242.633 95.057 242.352 95.1871 242.042C95.3171 241.732 95.384 241.4 95.3838 241.065V212.238C95.467 209.075 94.8086 205.935 93.4599 203.063C92.1889 200.472 90.1577 198.317 87.6297 196.878C84.8517 195.387 81.7225 194.65 78.5611 194.739H78.5104C75.1701 194.706 71.8823 195.559 68.9914 197.21C67.9066 197.833 66.8931 198.57 65.9685 199.408V198.105C65.9687 197.77 65.9019 197.438 65.7719 197.129C65.6419 196.819 65.4513 196.538 65.211 196.3C64.9706 196.063 64.6853 195.875 64.3712 195.747C64.0571 195.619 63.7205 195.553 63.3805 195.553H60.3155C59.9754 195.552 59.6385 195.618 59.3242 195.746C59.0099 195.875 58.7243 196.063 58.4838 196.3C58.2433 196.537 58.0526 196.818 57.9226 197.128C57.7926 197.438 57.7259 197.77 57.7262 198.105V241.071C57.726 241.406 57.7929 241.738 57.923 242.048C58.0531 242.357 58.2438 242.639 58.4843 242.876C58.7248 243.113 59.0103 243.301 59.3245 243.429C59.6387 243.557 59.9755 243.623 60.3155 243.622H63.3805C63.7204 243.622 64.0571 243.557 64.3711 243.428C64.6852 243.3 64.9705 243.112 65.2109 242.875C65.4512 242.638 65.6419 242.357 65.7719 242.047C65.9019 241.738 65.9687 241.406 65.9685 241.071V215.016C65.9839 213.536 66.2563 212.07 66.774 210.68C67.3166 209.175 68.1219 207.776 69.1537 206.544C70.1666 205.322 71.4266 204.32 72.8535 203.604C74.3635 202.867 76.0321 202.501 77.7166 202.539M19.35 242.798C22.1474 243.923 25.1498 244.468 28.17 244.398C30.4931 244.37 32.7938 243.946 34.97 243.144C37.4184 242.257 39.6835 240.94 41.6558 239.257C42.0452 238.93 42.4107 238.581 42.767 238.222C42.9979 239.711 43.51 241.144 44.2768 242.446C44.5072 242.819 44.8315 243.127 45.2182 243.34C45.6048 243.553 46.0408 243.664 46.4838 243.662H46.489L47.9988 243.646C48.68 243.638 49.3307 243.366 49.8097 242.888C50.2887 242.411 50.5574 241.766 50.5575 241.095V213.75C50.632 210.397 49.9907 207.067 48.6751 203.974C47.4149 201.111 45.2644 198.716 42.534 197.135C39.7318 195.507 36.3357 194.78 32.4781 194.78C29.0228 194.694 25.5926 195.381 22.445 196.789C19.6223 198.102 17.2473 200.194 15.6086 202.813L15.5969 202.831C15.3784 203.181 15.2627 203.583 15.2627 203.994C15.2646 204.476 15.4183 204.946 15.7028 205.338C15.9872 205.73 16.3882 206.026 16.8504 206.184L19.3909 207.075C20.0971 207.321 20.8632 207.346 21.5839 207.145C22.3045 206.944 22.9444 206.528 23.4154 205.954C23.6535 205.663 23.9077 205.385 24.1768 205.121C25.8391 203.53 28.3057 202.593 32.1438 202.579C33.7957 202.54 35.4414 202.792 37.003 203.325C38.1213 203.721 39.1112 204.406 39.8694 205.309C41.3078 207.049 42.2127 209.738 42.2971 213.592C38.5972 213.649 35.3173 213.801 32.4827 214.062C28.9188 214.376 25.4041 215.097 22.0094 216.211H21.9977L21.9679 216.22H21.9627C18.6218 217.244 15.8611 218.839 13.9223 221.127C11.9236 223.605 10.8874 226.705 11 229.869V229.952C10.9418 232.714 11.7069 235.432 13.2005 237.769C14.6983 240.01 16.8391 241.761 19.35 242.798ZM40.4283 229.498C39.1861 231.634 37.4308 233.437 35.3166 234.748C33.2562 236.04 30.8583 236.711 28.4167 236.68C25.1576 236.674 22.9727 235.937 21.4966 234.735C20.8014 234.18 20.2471 233.473 19.8778 232.669C19.4955 231.745 19.3074 230.754 19.3247 229.756C19.3062 228.583 19.6044 227.426 20.1887 226.403C20.6268 225.63 21.5953 224.727 23.366 223.891C25.0498 223.087 27.7747 222.346 31.4013 221.829C35.0208 221.359 38.6659 221.106 42.3166 221.073V222.652C42.3254 225.06 41.6731 227.426 40.429 229.499M131.554 197.135C128.752 195.507 125.355 194.78 121.498 194.78C118.042 194.694 114.612 195.381 111.465 196.789C108.643 198.102 106.268 200.195 104.63 202.813L104.618 202.831C104.399 203.18 104.283 203.583 104.284 203.994C104.285 204.476 104.439 204.945 104.723 205.338C105.007 205.73 105.408 206.026 105.87 206.184L108.411 207.075C109.117 207.322 109.883 207.346 110.604 207.145C111.324 206.944 111.964 206.528 112.435 205.954C112.675 205.664 112.931 205.388 113.202 205.126C114.865 203.535 117.331 202.598 121.169 202.583C122.821 202.544 124.467 202.797 126.029 203.329C127.147 203.726 128.137 204.411 128.895 205.313C130.333 207.053 131.238 209.742 131.323 213.596C127.623 213.653 124.343 213.806 121.508 214.067C117.944 214.38 114.43 215.101 111.035 216.216L111.023 216.22L110.993 216.228H110.988C107.647 217.252 104.887 218.846 102.948 221.135C100.952 223.611 99.9162 226.707 100.027 229.867V229.95C99.9677 232.712 100.733 235.43 102.227 237.767C103.725 240.008 105.865 241.759 108.376 242.796C111.173 243.921 114.176 244.466 117.197 244.396C119.52 244.368 121.821 243.944 123.997 243.142C126.445 242.255 128.71 240.938 130.683 239.255C131.072 238.928 131.438 238.579 131.794 238.221C132.025 239.709 132.537 241.142 133.304 242.444C133.534 242.817 133.858 243.125 134.245 243.338C134.632 243.551 135.068 243.662 135.511 243.66H135.516L137.031 243.643C137.712 243.635 138.363 243.363 138.842 242.885C139.321 242.408 139.59 241.763 139.59 241.091V213.747C139.664 210.394 139.023 207.064 137.707 203.971C136.446 201.107 134.294 198.712 131.562 197.133M129.45 229.498C128.208 231.635 126.452 233.438 124.338 234.749C122.278 236.041 119.88 236.712 117.438 236.681C114.179 236.674 111.994 235.938 110.518 234.736C109.823 234.181 109.269 233.473 108.899 232.67C108.517 231.746 108.328 230.755 108.346 229.757C108.328 228.583 108.626 227.426 109.21 226.404C109.648 225.631 110.617 224.727 112.388 223.892C114.071 223.088 116.796 222.346 120.423 221.829C124.042 221.359 127.688 221.107 131.338 221.073V222.652C131.347 225.061 130.695 227.427 129.451 229.499M30.9722 170.386C32.4699 172.626 34.6103 174.377 37.1205 175.414C39.9183 176.539 42.9211 177.083 45.9418 177.014C48.2649 176.987 50.5657 176.563 52.7418 175.76C55.1901 174.873 57.4552 173.556 59.4275 171.873C59.817 171.546 60.1824 171.196 60.5388 170.839C60.7698 172.328 61.2819 173.76 62.0486 175.063C62.2789 175.436 62.6032 175.744 62.9899 175.957C63.3766 176.17 63.8126 176.281 64.2555 176.278H64.2607L65.7757 176.261C66.4557 176.252 67.1045 175.979 67.582 175.502C68.0595 175.024 68.3272 174.381 68.3273 173.71V146.367C68.4016 143.014 67.7603 139.683 66.445 136.59C65.1839 133.726 63.0319 131.331 60.2999 129.752C57.4977 128.123 54.1016 127.396 50.244 127.396C46.7908 127.311 43.363 127.998 40.2174 129.406C37.395 130.718 35.0203 132.811 33.3823 135.429L33.3706 135.447C33.1512 135.796 33.035 136.199 33.035 136.609C33.037 137.092 33.1907 137.561 33.475 137.954C33.7593 138.346 34.1601 138.642 34.6221 138.8L37.1627 139.691C37.5492 139.827 37.9564 139.897 38.3668 139.897C38.9071 139.896 39.4403 139.776 39.928 139.547C40.4157 139.317 40.8455 138.984 41.1865 138.571C41.4265 138.28 41.6827 138.002 41.9537 137.739C43.6161 136.148 46.0826 135.211 49.9208 135.196C51.5727 135.158 53.2183 135.412 54.7799 135.944C55.8987 136.339 56.8888 137.025 57.6464 137.928C59.0848 139.666 59.9896 142.355 60.074 146.21C56.3741 146.267 53.0942 146.42 50.2596 146.68C46.6957 146.994 43.181 147.715 39.7864 148.83H39.7747L39.7448 148.839H39.7396C36.3987 149.863 33.6381 151.457 31.6992 153.746C29.7032 156.222 28.6676 159.318 28.7782 162.479V162.561C28.7194 165.323 29.4845 168.041 30.9787 170.378M58.2014 162.114C56.9589 164.251 55.2037 166.054 53.0897 167.366C51.0289 168.657 48.6312 169.328 46.1897 169.297C42.9306 169.292 40.7457 168.554 39.2697 167.353C38.5742 166.797 38.0198 166.089 37.6508 165.285C37.268 164.361 37.0798 163.371 37.0978 162.373C37.0792 161.201 37.3769 160.044 37.9604 159.022C38.3986 158.25 39.367 157.345 41.1378 156.51C42.8216 155.706 45.5465 154.964 49.173 154.448C52.7925 153.978 56.4377 153.725 60.0883 153.692V155.271C60.0973 157.68 59.445 160.046 58.2007 162.119M269.2 234.142C267.113 235.788 264.634 236.624 261.342 236.638C257.008 236.591 254.175 235.274 251.851 232.456C249.571 229.631 248.273 225.465 248.271 219.669V219.655C248.271 213.621 249.547 209.343 251.705 206.613C252.718 205.302 254.045 204.257 255.566 203.574C257.316 202.853 259.198 202.499 261.094 202.536C263.951 202.436 266.748 203.359 268.967 205.136C270.101 206.075 271.034 207.228 271.71 208.527C271.936 208.973 272.317 209.323 272.784 209.513C273.251 209.703 273.772 209.72 274.251 209.562L278.14 208.225C278.419 208.128 278.673 207.973 278.886 207.771C279.099 207.569 279.266 207.325 279.376 207.055C279.486 206.785 279.537 206.494 279.525 206.203C279.512 205.912 279.438 205.627 279.305 205.367C278.847 204.429 278.312 203.53 277.704 202.679C275.899 200.139 273.463 198.098 270.629 196.751C267.652 195.378 264.396 194.691 261.11 194.741H261.057C257.102 194.659 253.205 195.685 249.818 197.701C246.516 199.774 243.931 202.786 242.404 206.34C240.716 210.069 239.945 214.521 239.943 219.672C239.842 224.077 240.662 228.456 242.352 232.535C243.86 236.132 246.443 239.192 249.756 241.308C253.201 243.393 257.183 244.453 261.223 244.361H261.305C265.96 244.461 270.52 243.049 274.28 240.341C277.114 238.161 279.246 235.217 280.418 231.867C280.512 231.613 280.554 231.343 280.54 231.072C280.527 230.802 280.459 230.537 280.341 230.292C280.223 230.048 280.056 229.83 279.851 229.649C279.646 229.469 279.407 229.331 279.147 229.244L275.34 227.935C274.84 227.759 274.29 227.78 273.806 227.995C273.322 228.21 272.941 228.601 272.744 229.087C272.042 231.056 270.818 232.803 269.197 234.145M321.038 221.719C320.002 220.268 318.644 219.069 317.068 218.212C316.633 217.968 316.184 217.75 315.723 217.559C313.699 216.75 311.586 216.175 309.427 215.846C307.552 215.551 305.665 215.29 303.769 215.064C303.534 215.035 303.303 215 303.068 214.975C301.269 214.778 299.491 214.425 297.754 213.922C296.605 213.623 295.566 213.006 294.761 212.144C294.246 211.568 293.845 210.631 293.836 208.896C293.822 208.004 293.993 207.119 294.338 206.295C294.69 205.536 295.207 204.862 295.851 204.321C297.136 203.211 299.265 202.46 302.598 202.458C305.74 202.474 307.992 203.252 309.803 204.728C311.12 205.895 312.08 207.402 312.571 209.08C312.659 209.334 312.797 209.568 312.978 209.769C313.158 209.971 313.377 210.135 313.622 210.252C313.867 210.37 314.133 210.438 314.405 210.454C314.677 210.469 314.949 210.432 315.206 210.343L319.107 209.002C319.62 208.828 320.043 208.462 320.285 207.983C320.527 207.504 320.568 206.951 320.401 206.443C319.904 204.957 319.207 203.543 318.329 202.24C316.676 199.765 314.36 197.79 311.638 196.533C308.822 195.301 305.767 194.691 302.687 194.745H302.665C299.487 194.654 296.332 195.31 293.461 196.659C291.1 197.771 289.111 199.528 287.73 201.72C286.35 203.912 285.636 206.448 285.672 209.029V209.077C285.672 211.91 286.263 214.444 287.729 216.467C288.756 217.88 290.096 219.045 291.646 219.873C292.105 220.124 292.578 220.346 293.065 220.538C295.084 221.316 297.183 221.872 299.325 222.197C300.71 222.415 302.095 222.61 303.479 222.792C304.199 222.886 304.918 222.984 305.638 223.068C307.39 223.261 309.117 223.633 310.791 224.177C311.955 224.53 313.003 225.182 313.827 226.066C314.324 226.62 314.742 227.597 314.75 229.394C314.764 230.414 314.565 231.425 314.165 232.366C313.753 233.248 313.151 234.032 312.401 234.662C310.898 235.963 308.435 236.808 304.661 236.81C301.005 236.798 298.331 235.907 296.222 234.235C294.802 233.085 293.707 231.593 293.042 229.904C292.838 229.428 292.457 229.047 291.977 228.84C291.497 228.632 290.955 228.614 290.462 228.788L286.669 230.091C286.406 230.18 286.163 230.321 285.956 230.504C285.75 230.688 285.583 230.911 285.465 231.159C285.348 231.408 285.283 231.678 285.274 231.952C285.265 232.226 285.312 232.499 285.413 232.755C286.538 235.65 288.424 238.199 290.876 240.14C294.539 242.998 299.207 244.363 304.53 244.363H304.602C307.743 244.415 310.862 243.849 313.778 242.699C316.463 241.634 318.793 239.853 320.509 237.555C322.243 235.135 323.144 232.232 323.081 229.27V229.226C323.081 226.338 322.497 223.769 321.037 221.714" fill="#27272A"/>
</g>
<defs>
<clipPath id="clip0_1020_153">
<rect width="340" height="150" fill="white" transform="translate(11 112)"/>
</clipPath>
</defs>
</svg>
