<svg width="360" height="360" viewBox="0 0 360 360" fill="none" xmlns="http://www.w3.org/2000/svg">
<path d="M180 109.848C167.759 109.848 156.256 112.996 146.24 118.517C146.24 118.517 179.926 118.517 180 118.517C213.908 118.517 241.492 146.101 241.492 180.009C241.492 213.917 213.908 241.502 180 241.502C146.092 241.502 118.507 213.908 118.507 180C118.507 173.935 119.403 168.073 121.055 162.534H112.045C110.614 168.119 109.848 173.972 109.848 180C109.848 218.745 141.254 250.152 180 250.152C218.745 250.152 250.152 218.745 250.152 180C250.152 141.254 218.745 109.848 180 109.848Z" fill="#00EAB6"/>
<path d="M133.463 127.536C130.481 130.186 127.721 133.075 125.219 136.195H180C204.15 136.195 223.804 155.85 223.804 180C223.804 204.15 204.15 223.804 180 223.804C155.85 223.804 136.196 204.15 136.196 180C136.196 173.796 137.497 167.888 139.842 162.534H130.536C128.598 167.999 127.536 173.87 127.536 180C127.536 208.978 151.022 232.464 180 232.464C208.978 232.464 232.464 208.978 232.464 180C232.464 151.022 208.978 127.536 180 127.536H133.463Z" fill="#00EAB6"/>
<path d="M180 153.699C194.503 153.699 206.301 165.497 206.301 180C206.301 194.503 194.503 206.301 180 206.301C165.497 206.301 153.699 194.503 153.699 180C153.699 173.289 156.247 167.186 160.392 162.534H149.738C146.756 167.676 145.03 173.63 145.03 180C145.03 199.313 160.687 214.97 180 214.97C199.313 214.97 214.97 199.313 214.97 180C214.97 160.687 199.313 145.03 180 145.03H119.2C117.603 147.809 116.181 150.699 114.962 153.69H180V153.699Z" fill="#00EAB6"/>
</svg>
