<svg width="160" height="22" viewBox="0 0 160 22" fill="none" xmlns="http://www.w3.org/2000/svg">
<path d="M10.6239 19.6362C13.1717 20.2934 12.771 17.8221 12.254 16.5339C4.76637 14.7671 1.94801 12.2572 1.47477 11.2231C1.15928 11.3283 0.0263672 12.3274 0.0263672 12.9058C0.236693 16.5865 7.45638 18.819 10.6239 19.6362Z" fill="url(#paint0_linear_974_78)"/>
<path d="M13.8973 3.18219C11.3495 2.52492 11.7502 4.99625 12.2673 6.28449C19.7549 8.05123 22.5732 10.5611 23.0465 11.5952C23.362 11.4901 24.4949 10.491 24.4949 9.91261C24.2845 6.23191 17.0649 3.99934 13.8973 3.18219Z" fill="url(#paint1_linear_974_78)"/>
<path d="M16.0644 17.3998C15.8541 19.9238 12.7685 20.0128 11.2524 19.7411C12.935 19.5834 12.6466 17.8731 12.3048 16.7163C11.963 15.5595 10.8063 12.6149 8.78187 7.3305C6.75749 2.04607 13.3031 3.04654 13.6449 3.12541C11.1998 3.04654 12.0682 5.43757 12.2785 6.38402C12.4889 7.33048 14.5658 12.4835 15.1968 14.0872C15.8278 15.6909 16.0644 16.5848 16.0644 17.3998Z" fill="url(#paint2_linear_974_78)"/>
<path d="M4.26535 6.43799C6.76822 7.19516 8.42805 8.48866 8.9451 9.04077C1.43647 10.471 0.0525814 12.2745 0.0325442 13.037C-0.151491 11.4595 0.479486 9.46142 1.05788 8.3835C1.63628 7.30558 3.73953 6.43799 4.26535 6.43799Z" fill="#D09DE8"/>
<path d="M4.26535 6.43799C6.76822 7.19516 8.42805 8.48866 8.9451 9.04077C1.43647 10.471 0.0525814 12.2745 0.0325442 13.037C-0.151491 11.4595 0.479486 9.46142 1.05788 8.3835C1.63628 7.30558 3.73953 6.43799 4.26535 6.43799Z" fill="url(#paint3_linear_974_78)"/>
<path d="M20.2438 16.2969C17.7409 15.5397 16.0811 14.2462 15.5641 13.6941C23.0727 12.2639 24.4566 10.4603 24.4766 9.69791C24.6606 11.2753 24.0297 13.2734 23.4513 14.3514C22.8729 15.4293 20.7696 16.2969 20.2438 16.2969Z" fill="url(#paint4_linear_974_78)"/>
<path d="M38.986 4.5V16.344L37.312 14.688H47.41V18H35.26V4.5H38.986ZM55.8069 18.288C54.2109 18.288 52.8069 17.994 51.5949 17.406C50.3949 16.818 49.4589 15.996 48.7869 14.94C48.1269 13.884 47.7969 12.654 47.7969 11.25C47.7969 9.846 48.1269 8.616 48.7869 7.56C49.4589 6.504 50.3949 5.682 51.5949 5.094C52.8069 4.506 54.2109 4.212 55.8069 4.212C57.4149 4.212 58.8189 4.506 60.0189 5.094C61.2189 5.682 62.1549 6.504 62.8269 7.56C63.4989 8.616 63.8349 9.846 63.8349 11.25C63.8349 12.654 63.4989 13.884 62.8269 14.94C62.1549 15.996 61.2189 16.818 60.0189 17.406C58.8189 17.994 57.4149 18.288 55.8069 18.288ZM55.8069 14.958C56.6829 14.958 57.4389 14.808 58.0749 14.508C58.7109 14.208 59.1969 13.782 59.5329 13.23C59.8809 12.678 60.0549 12.018 60.0549 11.25C60.0549 10.482 59.8809 9.822 59.5329 9.27C59.1969 8.718 58.7109 8.292 58.0749 7.992C57.4389 7.692 56.6829 7.542 55.8069 7.542C54.9429 7.542 54.1929 7.692 53.5569 7.992C52.9209 8.292 52.4289 8.718 52.0809 9.27C51.7329 9.822 51.5589 10.482 51.5589 11.25C51.5589 12.018 51.7329 12.678 52.0809 13.23C52.4289 13.782 52.9209 14.208 53.5569 14.508C54.1929 14.808 54.9429 14.958 55.8069 14.958ZM73.174 18.288C71.578 18.288 70.174 17.994 68.962 17.406C67.762 16.818 66.826 15.996 66.154 14.94C65.494 13.884 65.164 12.654 65.164 11.25C65.164 9.846 65.494 8.616 66.154 7.56C66.826 6.504 67.762 5.682 68.962 5.094C70.174 4.506 71.578 4.212 73.174 4.212C74.782 4.212 76.186 4.506 77.386 5.094C78.586 5.682 79.522 6.504 80.194 7.56C80.866 8.616 81.202 9.846 81.202 11.25C81.202 12.654 80.866 13.884 80.194 14.94C79.522 15.996 78.586 16.818 77.386 17.406C76.186 17.994 74.782 18.288 73.174 18.288ZM73.174 14.958C74.05 14.958 74.806 14.808 75.442 14.508C76.078 14.208 76.564 13.782 76.9 13.23C77.248 12.678 77.422 12.018 77.422 11.25C77.422 10.482 77.248 9.822 76.9 9.27C76.564 8.718 76.078 8.292 75.442 7.992C74.806 7.692 74.05 7.542 73.174 7.542C72.31 7.542 71.56 7.692 70.924 7.992C70.288 8.292 69.796 8.718 69.448 9.27C69.1 9.822 68.926 10.482 68.926 11.25C68.926 12.018 69.1 12.678 69.448 13.23C69.796 13.782 70.288 14.208 70.924 14.508C71.56 14.808 72.31 14.958 73.174 14.958ZM90.5412 18.288C88.9452 18.288 87.5412 17.994 86.3292 17.406C85.1292 16.818 84.1932 15.996 83.5212 14.94C82.8612 13.884 82.5312 12.654 82.5312 11.25C82.5312 9.846 82.8612 8.616 83.5212 7.56C84.1932 6.504 85.1292 5.682 86.3292 5.094C87.5412 4.506 88.9452 4.212 90.5412 4.212C92.1492 4.212 93.5532 4.506 94.7532 5.094C95.9532 5.682 96.8892 6.504 97.5612 7.56C98.2332 8.616 98.5692 9.846 98.5692 11.25C98.5692 12.654 98.2332 13.884 97.5612 14.94C96.8892 15.996 95.9532 16.818 94.7532 17.406C93.5532 17.994 92.1492 18.288 90.5412 18.288ZM90.5412 14.958C91.4172 14.958 92.1732 14.808 92.8092 14.508C93.4452 14.208 93.9312 13.782 94.2672 13.23C94.6152 12.678 94.7892 12.018 94.7892 11.25C94.7892 10.482 94.6152 9.822 94.2672 9.27C93.9312 8.718 93.4452 8.292 92.8092 7.992C92.1732 7.692 91.4172 7.542 90.5412 7.542C89.6772 7.542 88.9272 7.692 88.2912 7.992C87.6552 8.292 87.1632 8.718 86.8152 9.27C86.4672 9.822 86.2932 10.482 86.2932 11.25C86.2932 12.018 86.4672 12.678 86.8152 13.23C87.1632 13.782 87.6552 14.208 88.2912 14.508C88.9272 14.808 89.6772 14.958 90.5412 14.958ZM108.07 4.5C109.198 4.5 110.17 4.692 110.986 5.076C111.814 5.46 112.444 6.006 112.876 6.714C113.308 7.41 113.524 8.226 113.524 9.162C113.524 10.086 113.308 10.902 112.876 11.61C112.444 12.306 111.814 12.846 110.986 13.23C110.17 13.614 109.198 13.806 108.07 13.806H102.22V10.818H107.836C108.436 10.818 108.904 10.674 109.24 10.386C109.576 10.086 109.744 9.678 109.744 9.162C109.744 8.634 109.576 8.226 109.24 7.938C108.904 7.638 108.436 7.488 107.836 7.488H102.544L104.218 5.76V18H100.492V4.5H108.07Z" fill="#F6F6F6"/>
<path d="M127.944 9C128.944 9 129.824 9.188 130.584 9.564C131.344 9.94 131.936 10.468 132.36 11.148C132.784 11.82 132.996 12.604 132.996 13.5C132.996 14.388 132.784 15.172 132.36 15.852C131.936 16.524 131.344 17.052 130.584 17.436C129.824 17.812 128.944 18 127.944 18H124.092V9H127.944ZM125.22 17.7L124.5 17.004H127.992C128.76 17.004 129.432 16.856 130.008 16.56C130.584 16.264 131.032 15.852 131.352 15.324C131.68 14.796 131.844 14.188 131.844 13.5C131.844 12.796 131.68 12.184 131.352 11.664C131.032 11.136 130.584 10.724 130.008 10.428C129.432 10.132 128.76 9.984 127.992 9.984H124.5L125.22 9.3V17.7ZM138.07 18.156C137.278 18.156 136.578 18.008 135.97 17.712C135.37 17.416 134.902 17 134.566 16.464C134.23 15.928 134.062 15.312 134.062 14.616C134.062 13.912 134.23 13.296 134.566 12.768C134.902 12.24 135.37 11.828 135.97 11.532C136.578 11.236 137.278 11.088 138.07 11.088C138.87 11.088 139.57 11.236 140.17 11.532C140.77 11.828 141.238 12.24 141.574 12.768C141.918 13.296 142.09 13.912 142.09 14.616C142.09 15.312 141.918 15.928 141.574 16.464C141.238 17 140.77 17.416 140.17 17.712C139.57 18.008 138.87 18.156 138.07 18.156ZM138.07 17.232C138.662 17.232 139.174 17.128 139.606 16.92C140.038 16.704 140.37 16.4 140.602 16.008C140.842 15.616 140.962 15.152 140.962 14.616C140.962 14.088 140.842 13.628 140.602 13.236C140.37 12.844 140.038 12.54 139.606 12.324C139.174 12.108 138.662 12 138.07 12C137.486 12 136.974 12.108 136.534 12.324C136.102 12.54 135.77 12.844 135.538 13.236C135.306 13.628 135.19 14.088 135.19 14.616C135.19 15.152 135.306 15.616 135.538 16.008C135.77 16.4 136.102 16.704 136.534 16.92C136.974 17.128 137.486 17.232 138.07 17.232ZM150.646 15.432C150.558 15.968 150.338 16.44 149.986 16.848C149.642 17.256 149.202 17.576 148.666 17.808C148.13 18.04 147.538 18.156 146.89 18.156C146.138 18.156 145.474 18.008 144.898 17.712C144.322 17.408 143.87 16.992 143.542 16.464C143.222 15.928 143.062 15.312 143.062 14.616C143.062 13.92 143.222 13.308 143.542 12.78C143.87 12.244 144.322 11.828 144.898 11.532C145.474 11.236 146.138 11.088 146.89 11.088C147.538 11.088 148.13 11.204 148.666 11.436C149.202 11.66 149.642 11.976 149.986 12.384C150.338 12.792 150.558 13.268 150.646 13.812H149.506C149.386 13.252 149.086 12.812 148.606 12.492C148.134 12.164 147.562 12 146.89 12C146.346 12 145.87 12.108 145.462 12.324C145.062 12.54 144.75 12.844 144.526 13.236C144.302 13.62 144.19 14.08 144.19 14.616C144.19 15.152 144.302 15.616 144.526 16.008C144.75 16.4 145.062 16.704 145.462 16.92C145.87 17.128 146.346 17.232 146.89 17.232C147.57 17.232 148.146 17.068 148.618 16.74C149.098 16.412 149.394 15.976 149.506 15.432H150.646ZM158.543 16.02C158.543 16.452 158.411 16.828 158.147 17.148C157.891 17.468 157.511 17.716 157.007 17.892C156.511 18.068 155.907 18.156 155.195 18.156C154.467 18.156 153.823 18.056 153.263 17.856C152.711 17.648 152.279 17.36 151.967 16.992C151.655 16.624 151.487 16.196 151.463 15.708H152.591C152.639 16.02 152.779 16.296 153.011 16.536C153.243 16.768 153.547 16.948 153.923 17.076C154.299 17.204 154.727 17.268 155.207 17.268C155.903 17.268 156.447 17.164 156.839 16.956C157.239 16.74 157.439 16.448 157.439 16.08C157.439 15.792 157.311 15.58 157.055 15.444C156.799 15.3 156.323 15.192 155.627 15.12L154.319 14.988C153.671 14.924 153.151 14.808 152.759 14.64C152.375 14.464 152.099 14.248 151.931 13.992C151.763 13.728 151.679 13.436 151.679 13.116C151.679 12.676 151.811 12.308 152.075 12.012C152.347 11.708 152.723 11.48 153.203 11.328C153.683 11.168 154.239 11.088 154.871 11.088C155.543 11.088 156.139 11.184 156.659 11.376C157.187 11.568 157.607 11.836 157.919 12.18C158.231 12.524 158.403 12.92 158.435 13.368H157.319C157.279 13.112 157.159 12.88 156.959 12.672C156.759 12.456 156.479 12.284 156.119 12.156C155.767 12.028 155.331 11.964 154.811 11.964C154.171 11.964 153.671 12.056 153.311 12.24C152.959 12.424 152.783 12.692 152.783 13.044C152.783 13.3 152.899 13.504 153.131 13.656C153.363 13.808 153.775 13.916 154.367 13.98L155.855 14.136C156.535 14.2 157.071 14.312 157.463 14.472C157.855 14.632 158.131 14.84 158.291 15.096C158.459 15.352 158.543 15.66 158.543 16.02Z" fill="#B8B8B8"/>
<defs>
<linearGradient id="paint0_linear_974_78" x1="1.47236" y1="12.4648" x2="11.8309" y2="18.4591" gradientUnits="userSpaceOnUse">
<stop stop-color="#A573CC"/>
<stop offset="1" stop-color="#C8A6FF"/>
</linearGradient>
<linearGradient id="paint1_linear_974_78" x1="23.6091" y1="10.5193" x2="13.0928" y2="4.89309" gradientUnits="userSpaceOnUse">
<stop stop-color="#C7A5FE"/>
<stop offset="1" stop-color="#A574CC"/>
</linearGradient>
<linearGradient id="paint2_linear_974_78" x1="17.3782" y1="16.382" x2="2.87057" y2="6.67859" gradientUnits="userSpaceOnUse">
<stop offset="0.024783" stop-color="#AC6CFF"/>
<stop offset="1" stop-color="#7939CC"/>
</linearGradient>
<linearGradient id="paint3_linear_974_78" x1="0.742392" y1="8.77182" x2="7.57798" y2="9.9549" gradientUnits="userSpaceOnUse">
<stop stop-color="#AC6CFF"/>
<stop offset="1" stop-color="#7939CC"/>
</linearGradient>
<linearGradient id="paint4_linear_974_78" x1="23.7668" y1="13.963" x2="16.9312" y2="12.78" gradientUnits="userSpaceOnUse">
<stop stop-color="#AC6CFF"/>
<stop offset="1" stop-color="#7939CC"/>
</linearGradient>
</defs>
</svg>
